<svg width="24px" height="24px" viewBox="0 0 24 24" fill="none" xmlns="http://www.w3.org/2000/svg">
<g clip-path="url(#clip0_301_1669)">
<path d="M12.0003 12.725L12.0003 16.7466L17.7013 16.7466C17.473 17.915 16.8226 18.8876 15.9328 19.5398C15.043 20.1921 13.9145 20.5518 12.6393 20.6548C11.3642 20.7578 10.0212 20.6657 8.76185 20.3804C7.50254 20.0951 6.34651 19.6193 5.37894 18.9959L5.36727 18.986L2.34869 21.3621L2.2476 21.464C3.76634 22.9546 5.75389 23.9463 8.00038 24C10.2469 24.0537 12.4208 23.5936 14.4005 22.6865C16.3802 21.7794 18.0967 20.4497 19.349 18.8091C20.5752 17.1587 21.3129 15.228 21.5036 13.1979L21.5036 12.9213L20.8931 12.3392L12.0003 12.725Z" fill="#2684FC"/>
<path d="M12.0004 3.30836C13.5286 3.20815 14.9754 3.73831 16.1432 4.70889L18.8988 2.0001C17.0673 0.697424 14.619 0.0577966 12.0004 0C9.38173 -0.0577966 6.93349 0.697424 5.10196 2.0001L2.24675 4.67502L2.34784 4.77695L5.37877 7.15343L5.36711 7.14358C6.33468 6.51996 7.49071 6.04431 8.75003 5.75903C10.0093 5.47376 11.3524 5.38165 12.6276 5.48463C13.9028 5.58762 15.0313 5.94733 15.9211 6.50293L12.0004 3.30836Z" fill="#34A853"/>
<path d="M5.36717 18.9861L2.34859 21.3622L2.24751 21.4641C3.76625 22.9546 5.7538 23.9463 8.00029 24C10.2468 24.0537 12.4206 23.5936 14.4004 22.6866C16.3801 21.7795 18.0967 20.4497 19.3489 18.8092C20.5752 17.1587 21.3129 15.228 21.5036 13.1979L21.5036 12.9213L20.8931 12.3392L12.0003 12.725L5.36717 18.9861Z" fill="#FABC05"/>
<path d="M12.0004 5.48461C10.7252 5.38162 9.38217 5.47373 8.12285 5.75901C6.86354 6.04428 5.70751 6.51993 4.73994 7.14356L4.72828 7.15341L1.7097 4.77694L1.60861 4.67501C3.43987 3.3725 5.88812 2.73255 8.50686 2.67895C11.1256 2.62534 13.5739 3.3725 15.4051 4.67501L12.0004 5.48461Z" fill="#EA4335"/>
</g>
<defs>
<clipPath id="clip0_301_1669">
<rect width="24" height="24" fill="white"/>
</clipPath>
</defs>
</svg>
